# xmcd
#
# Track frame offsets:
#	150
#	21962
#	37637
#	62389
#	79817
#	114219
#	133857
#	156291
#	171938
#	182400
#	198380
#	215313
#
# Disc length: 3268 seconds
#
# Revision: 1
# Processed by: cddbd v1.5.2PL0 Copyright (c) Steve Scherf et al.
# Submitted via: audiograbber 1.83.01
#
DISCID=930cc20c
DTITLE=NRPS - 70-05-02 Harpur College Binghampton NY
DYEAR=1900
DGENRE=
TTITLE0=Brown Eyed Handsome Man
TTITLE1=Truck Drivin' Man
TTITLE2=If You Hear Me When I'm Leavin'
TTITLE3=Whatcha Gonna Do
TTITLE4=All I Ever Wanted
TTITLE5=Henry
TTITLE6=Lodi
TTITLE7=Sawmill
TTITLE8=The Race Is On
TTITLE9=Mama Tried
TTITLE10=Me and My Uncle
TTITLE11=The Weight
EXTD=
EXTT0=
EXTT1=
EXTT2=
EXTT3=
EXTT4=
EXTT5=
EXTT6=
EXTT7=
EXTT8=
EXTT9=
EXTT10=
EXTT11=
PLAYORDER=
